<svg version="1.1" xmlns="http://www.w3.org/2000/svg" xmlns:xlink="http://www.w3.org/1999/xlink" width="101.90556" height="35.31746" viewBox="0,0,101.90556,35.31746"><g transform="translate(-189.04722,-267.81982)"><g data-paper-data="{&quot;isPaintingLayer&quot;:true}" fill-rule="nonzero" stroke="none" stroke-linecap="butt" stroke-linejoin="miter" stroke-miterlimit="10" stroke-dasharray="" stroke-dashoffset="0" style="mix-blend-mode: normal"><path d="M189.04722,303.13728v-35.31746h101.90556v35.31746z" data-paper-data="{&quot;index&quot;:null}" fill="#008429" stroke-width="0"/><path d="M254.23325,298.05841v-24.20784h16.87885v24.20784z" fill="#ffffff" stroke-width="0"/><path d="M268.0291,278.27297c0,1.04258 -0.69603,1.88776 -1.55463,1.88776c-0.8586,0 -1.55464,-0.84518 -1.55464,-1.88776c0,-1.04258 0.69603,-1.88777 1.55464,-1.88777c0.8586,0 1.55463,0.84518 1.55463,1.88777z" fill="#008429" stroke-width="0"/><path d="M259.02705,287.66585l3.44793,-6.27901l-2.20545,-0.0466l-2.74806,2.14713c0,0 -0.94328,-1.12154 -0.87308,-1.22924c0.08529,-0.13084 3.34774,-3.17881 3.34774,-3.17881l4.16241,-0.10315l3.74806,2.93531l0.45604,2.79827l2.82208,0.22896l0.00213,1.52587c0,0 -3.64894,-0.28352 -3.77229,-0.19349c-0.4329,0.31599 -2.00543,-2.53664 -2.00543,-2.53664l-1.88176,3.81381l4.75199,8.96176l-1.84338,0.60599l-5.09413,-7.44686l-0.19702,3.91873l-7.319,0.09286l-0.67724,-2.23949l6.09704,-0.0856z" fill="#008429" stroke-width="0"/><text transform="translate(193.04157,290.54813) scale(0.44075,0.44075)" font-size="40" xml:space="preserve" fill="#ffffff" fill-rule="nonzero" stroke="none" stroke-width="1" stroke-linecap="butt" stroke-linejoin="miter" stroke-miterlimit="10" stroke-dasharray="" stroke-dashoffset="0" font-family="Sans Serif" font-weight="normal" text-anchor="start" style="mix-blend-mode: normal"><tspan x="0" dy="0">Quiter</tspan></text></g></g></svg>