<svg version="1.1" xmlns="http://www.w3.org/2000/svg" xmlns:xlink="http://www.w3.org/1999/xlink" width="72.02476" height="73.01446" viewBox="0,0,72.02476,73.01446"><g transform="translate(-204.11344,-117.50564)"><g data-paper-data="{&quot;isPaintingLayer&quot;:true}" fill-rule="nonzero" stroke="none" stroke-width="0" stroke-linecap="butt" stroke-linejoin="miter" stroke-miterlimit="10" stroke-dasharray="" stroke-dashoffset="0" style="mix-blend-mode: normal"><path d="M262.9502,141.00564c0,1.81312 13.02686,33.92795 13.18794,43.81955c0.0381,2.33983 -16.06134,-25.44688 -16.06183,-16.8195c-0.00133,23.22692 -6.81754,19.16432 -9.20714,21.29421c-4.15322,3.70184 -5.1153,-23.5864 -11.11656,-23.5864c-5.25424,0 -7.98719,27.50412 -11.9009,24.59043c-2.65901,-1.97958 -4.05361,-0.06435 -6.48318,-21.92812c-1.49572,-13.46004 -16.33676,28.3215 -17.21972,17.40025c-0.78626,-9.72521 11.80141,-42.81342 11.80141,-44.77042c0,-12.97869 10.52131,-23.5 23.5,-23.5c12.97869,0 23.5,10.52131 23.5,23.5z" fill="#f2d400"/><path d="M254.71996,134.90564c0,5.19147 -6.80527,9.4 -15.2,9.4c-8.39473,0 -15.2,-4.20853 -15.2,-9.4c0,-5.19147 6.80527,-9.4 15.2,-9.4c8.39473,0 15.2,4.20853 15.2,9.4z" fill="#000000"/><path d="M245.83912,146.70124c0,3.57349 -2.61426,6.47038 -5.83912,6.47038c-3.22486,0 -5.83912,-2.89689 -5.83912,-6.47038c0,-3.57349 2.61426,-6.47038 5.83912,-6.47038c3.22486,0 5.83912,2.89689 5.83912,6.47038z" fill="#000000"/></g></g></svg>