<svg version="1.1" xmlns="http://www.w3.org/2000/svg" xmlns:xlink="http://www.w3.org/1999/xlink" width="101.90556" height="35.31746" viewBox="0,0,101.90556,35.31746"><g transform="translate(-184.04722,-101.34127)"><g data-paper-data="{&quot;isPaintingLayer&quot;:true}" fill-rule="nonzero" stroke="none" stroke-linecap="butt" stroke-linejoin="miter" stroke-miterlimit="10" stroke-dasharray="" stroke-dashoffset="0" style="mix-blend-mode: normal"><path d="M184.04722,136.65873v-35.31746h101.90556v35.31746z" data-paper-data="{&quot;index&quot;:null}" fill="#850000" stroke-width="0"/><path d="M188.49817,132.09242v-26.73337h18.63977v26.73337z" data-paper-data="{&quot;index&quot;:null}" fill="#ffffff" stroke-width="0"/><path d="M193.61962,108.15812c0.94819,0 1.71683,0.93337 1.71683,2.08472c0,1.15135 -0.76866,2.0847 -1.71683,2.0847c-0.94818,0 -1.71682,-0.93335 -1.71682,-2.0847c0,-1.15136 0.76864,-2.08472 1.71682,-2.08472z" data-paper-data="{&quot;index&quot;:null}" fill="#850000" stroke-width="0"/><path d="M201.60263,124.69039l6.73313,0.09453l-0.74789,2.47313l-8.08257,-0.10255l-0.21757,-4.32756l-5.62558,8.22377l-2.03569,-0.66921l5.24775,-9.89671l-2.07808,-4.21169c0,0 -1.73659,3.15024 -2.21465,2.80128c-0.13622,-0.09942 -4.16584,0.21368 -4.16584,0.21368l0.00235,-1.68506l3.1165,-0.25285l0.50362,-3.0902l4.13908,-3.24154l4.59666,0.11391c0,0 3.60281,3.36596 3.697,3.51045c0.07752,0.11894 -0.96417,1.35748 -0.96417,1.35748l-3.03476,-2.37113l-2.43554,0.05146l3.80764,6.93408z" data-paper-data="{&quot;index&quot;:null}" fill="#850000" stroke-width="0"/><text transform="translate(215.99149,122.88419) scale(0.39139,0.39139)" font-size="40" xml:space="preserve" fill="#ffffff" fill-rule="nonzero" stroke="none" stroke-width="1" stroke-linecap="butt" stroke-linejoin="miter" stroke-miterlimit="10" stroke-dasharray="" stroke-dashoffset="0" font-family="Sans Serif" font-weight="normal" text-anchor="start" style="mix-blend-mode: normal"><tspan x="0" dy="0">Revenir</tspan></text></g></g></svg>