<svg version="1.1" xmlns="http://www.w3.org/2000/svg" xmlns:xlink="http://www.w3.org/1999/xlink" width="103.9125" height="295.44565" viewBox="0,0,103.9125,295.44565"><defs><linearGradient x1="196.69443" y1="216.65624" x2="284.69443" y2="216.65624" gradientUnits="userSpaceOnUse" id="color-1"><stop offset="0" stop-color="#1f1f1f"/><stop offset="1" stop-color="#c1c1c1"/></linearGradient></defs><g transform="translate(-189.60799,-40.46058)"><g data-paper-data="{&quot;isPaintingLayer&quot;:true}" fill-rule="nonzero" stroke="#000000" stroke-linejoin="miter" stroke-miterlimit="10" stroke-dasharray="" stroke-dashoffset="0" style="mix-blend-mode: normal"><path d="M197.19443,108.93837c0,0 -12.0662,-42.90114 -1.5,-54.5c6.99361,-7.67711 83.23344,-19.67273 92,-6c9.45425,14.74529 -0.5,60.5 -0.5,60.5z" fill="#000000" stroke-width="3.5" stroke-linecap="butt"/><path d="M204.69443,316.65623c-6.91989,-184.71765 -7.5,-213 -7.5,-213c0,0 28.47043,5.70915 43.14944,5.3014c15.29561,-0.42488 46.85056,-7.8014 46.85056,-7.8014c0,0 -0.03711,51.0377 -2.5,210c-0.2749,17.7427 -27.58105,23 -40.34721,23c-12.73376,0 -39.01399,-0.4481 -39.65279,-17.5z" fill="url(#color-1)" stroke-width="3.5" stroke-linecap="butt"/><path d="M205.34721,305.57812c0,0 24.96634,14.07478 41.97444,12.19658c17.0081,-1.8782 38.02556,-14.69658 38.02556,-14.69658" fill="none" stroke-width="4.5" stroke-linecap="round"/></g></g></svg>