<svg version="1.1" xmlns="http://www.w3.org/2000/svg" xmlns:xlink="http://www.w3.org/1999/xlink" width="720" height="484" viewBox="0,0,720,484"><defs><radialGradient cx="-32.95836" cy="179.24479" r="37.56818" gradientUnits="userSpaceOnUse" id="color-1"><stop offset="0" stop-color="#000000" stop-opacity="0"/><stop offset="1" stop-color="#000000"/></radialGradient><radialGradient cx="507.74099" cy="180.99479" r="37.56818" gradientUnits="userSpaceOnUse" id="color-2"><stop offset="0" stop-color="#000000" stop-opacity="0"/><stop offset="1" stop-color="#000000"/></radialGradient></defs><g transform="translate(105.80557,60.83333)"><g data-paper-data="{&quot;isPaintingLayer&quot;:true}" fill-rule="nonzero" stroke-width="0" stroke-linecap="butt" stroke-linejoin="miter" stroke-miterlimit="10" stroke-dasharray="" stroke-dashoffset="0" style="mix-blend-mode: normal"><path d="M-105.80557,423.16667v-484h720v484z" fill="#464646" stroke="none"/><path d="M187.19443,181.16667v-1.16667h31v1.16667z" fill="#fbff00" stroke="#000000"/><path d="M121.52776,181.16667v-1.16667h31v1.16667z" fill="#fbff00" stroke="#000000"/><path d="M59.8611,181.16667v-1.16667h31v1.16667z" fill="#fbff00" stroke="#000000"/><path d="M-11.5,180.58334v-1.16667h31v1.16667z" fill="#fbff00" stroke="#000000"/><path d="M-69.16667,180.58334v-1.16667h31v1.16667z" fill="#fbff00" stroke="#000000"/><path d="M-31.16667,179.41667c0,20.74833 -17.01318,37.56818 -38,37.56818c-8.7149,0 -2.19197,-1.90037 -0.93954,-6.77803c1.76361,-6.86848 0.93954,-18.65769 0.93954,-30.79015c0,-16.48435 -0.74719,-28.98898 4.33272,-34.04895c1.31401,-1.30885 -8.64572,-3.51923 -4.33272,-3.51923c20.98682,0 38,16.81985 38,37.56818z" fill="url(#color-1)" stroke="none"/><path d="M265.02776,181.16667v-1.16667h31v1.16667z" fill="#fbff00" stroke="#000000"/><path d="M339.19443,181.16667v-1.16667h31v1.16667z" fill="#fbff00" stroke="#000000"/><path d="M414.02776,181.16667v-1.16667h31v1.16667z" fill="#fbff00" stroke="#000000"/><path d="M478.3611,181.75001v-1.16667h31v1.16667z" fill="#fbff00" stroke="#000000"/><path d="M543.94931,143.59849c4.31299,0 -5.64674,2.21037 -4.33273,3.51923c5.07992,5.05997 4.33273,17.56461 4.33273,34.04896c0,12.13246 -0.82407,23.92167 0.93954,30.79016c1.25243,4.87766 7.77536,6.77802 -0.93954,6.77802c-20.98682,0 -38,-16.81985 -38,-37.56818c0,-20.74833 17.01318,-37.56818 38,-37.56818z" data-paper-data="{&quot;index&quot;:null}" fill="url(#color-2)" stroke="none"/><path d="M541.1111,181.75001v-1.16667h31v1.16667z" fill="#fbff00" stroke="#000000"/></g></g></svg>