<svg version="1.1" xmlns="http://www.w3.org/2000/svg" xmlns:xlink="http://www.w3.org/1999/xlink" width="82.68851" height="79.66667" viewBox="0,0,82.68851,79.66667"><defs><linearGradient x1="122.0661" y1="165.84076" x2="140.55968" y2="165.84076" gradientUnits="userSpaceOnUse" id="color-1"><stop offset="0" stop-color="#1f1f1f"/><stop offset="1" stop-color="#c1c1c1"/></linearGradient></defs><g transform="translate(-90.56481,-121.05208)"><g data-paper-data="{&quot;isPaintingLayer&quot;:true}" fill-rule="nonzero" stroke-linecap="butt" stroke-linejoin="miter" stroke-miterlimit="10" stroke-dasharray="" stroke-dashoffset="0" style="mix-blend-mode: normal"><path d="M90.56481,200.71874v-79.66667h82.68851v79.66667z" fill="#252525" stroke="none" stroke-width="0"/><path d="M122.17118,143.20339c0,0 -2.53577,-9.01586 -0.31523,-11.45341c1.46974,-1.61338 17.49187,-4.13431 19.33419,-1.26092c1.98685,3.09878 -0.10508,12.71434 -0.10508,12.71434z" fill="#000000" stroke="#000000" stroke-width="0.5"/><path d="M123.74734,186.85619c-1.45424,-38.81921 -1.57616,-44.76287 -1.57616,-44.76287c0,0 5.98318,1.1998 9.06804,1.11411c3.21444,-0.08929 9.84585,-1.6395 9.84585,-1.6395c0,0 -0.0078,10.72579 -0.52538,44.1324c-0.05777,3.72871 -5.79627,4.83355 -8.47914,4.83355c-2.67605,0 -8.19896,-0.09417 -8.33321,-3.6777z" fill="url(#color-1)" stroke="#000000" stroke-width="0.5"/></g></g></svg>